<mxfile host="app.diagrams.net" modified="2023-12-13T02:53:01.840Z" agent="Mozilla/5.0 (Windows NT 10.0; Win64; x64) AppleWebKit/537.36 (KHTML, like Gecko) Chrome/119.0.0.0 Safari/537.36" version="22.1.8" etag="-b6B0goYCpZ06k4t7LFc" type="github">
  <diagram name="第 1 页" id="Q0DcA_FM5zQDcZj7vGgK">
    <mxGraphModel>
      <root>
        <mxCell id="0" />
        <mxCell id="1" parent="0" />
      </root>
    </mxGraphModel>
  </diagram>
</mxfile>
